<svg id="MOSTBET" xmlns="http://www.w3.org/2000/svg" width="1660.529" height="281.875" viewBox="0 0 1660.529 281.875">
  <defs>
    <style>
      .cls-1 {
        fill: #fb4d00;
      }

      .cls-2 {
        fill: #fff;
        fill-rule: evenodd;
      }
    </style>
  </defs>
  <circle id="Эллипс_1" data-name="Эллипс 1" class="cls-1" cx="433.859" cy="140.938" r="140.921"/>
  <path id="Фигура_1" data-name="Фигура 1" class="cls-2" d="M1004.55,447.782c33.64-.7,54.85,7.792,77.6,15.532q-11.235,23.14-22.49,46.285c-10.49-5.721-77.783-25.966-79.293-2.937,0.085,10.256,14.2,12.563,25.873,15.5,29.79,7.5,58.24,14.192,63.54,46.574,9.61,58.66-67.39,81.667-124.268,72.532-17.432-2.8-38.5-6.772-50.607-16.747q12.087-22.86,24.179-45.725c27.849,18.786,88.866,30.786,87.716,6.551-0.7-8.7-17.884-11.842-29.236-15.192-18.071-5.332-39.553-10.415-50.045-23.51-30.259-37.76,8.075-79.919,37.111-91.415A108.774,108.774,0,0,1,1004.55,447.782ZM332.029,453.86q31.769,0.181,63.542.362,15.46,49.541,30.928,99.09l1.125-.568q35.419-49.7,70.849-99.413,32.051-.1,64.1-0.2-17.991,93.88-35.987,187.78-30.923.1-61.853,0.2,7.87-42.573,15.744-85.15c-0.188.377-.376,0.752-0.563,1.129l-60.73,84.163-18.555.06q-13.215-41.377-26.43-82.761h-0.562q-7.872,41.445-15.744,82.9-30.924.1-61.855,0.2Q314.036,547.76,332.029,453.86Zm970.551-3.081q-4.215,23.4-8.43,46.805-28.395.087-56.8,0.18-13.485,70.481-26.99,140.975l-61.85.2v-1.692q13.485-69.636,26.99-139.286l-54.55.173v-1.69q4.5-22.553,9-45.114Zm425.11,45.428-92.22.294q-1.965,11.837-3.94,23.681l81.54-.26-9,46.806q-41.04.129-82.1,0.259-2.25,11.844-4.49,23.685,46.665-.147,93.34-0.3v0.565q-4.5,23.115-9,46.24l-155.2.493v-0.564q18.285-93.6,36.55-187.22l153.51-.487Q1732.2,472.8,1727.69,496.207Zm55.67-46.953,173.19-.549q-4.5,23.4-9,46.8l-56.79.745q-13.5,70.2-26.99,140.413l-61.86.2q13.785-70.2,27.56-140.414v-0.563l-55.11.173Q1778.86,472.66,1783.36,449.254Zm-432.98,1.938c47.92-.7,122.16-7.466,150.13,12.486,16.71,11.919,20.29,41.281,6.75,59.717-6.29,8.564-15.41,11.916-24.18,18.11v0.563c32.51,9.988,30.2,58.35,6.75,76.623-35.33,27.536-115.26,19.761-177.13,19.724Q1331.54,544.814,1350.38,451.192Zm46.67,69.733c21.55,0.627,51.69,3.161,46.1-16.857-3.5-7.672-30.71-9.473-42.17-6.261Zm-9.56,46.807q-2.25,11.838-4.5,23.684c22.02,0.5,54.75,5.9,51.73-17.072-1.14-3.493-2.89-5.251-5.06-6.09C1423.2,564.766,1397.18,567.594,1387.49,567.732Z" transform="translate(-296.031 -399.719)"/>
  <path id="Фигура_1_копия" data-name="Фигура 1 копия" class="cls-2" d="M731.27,436.25q14.619,33.765,29.241,67.534l74.225,5.964q-28.111,24.6-56.23,49.209,8.435,35.757,16.87,71.519l-64.667-37.554q-31.485,18.978-62.978,37.96,8.433-35.811,16.868-71.627-28.112-24.424-56.231-48.852,37.108-3.215,74.225-6.434Q716.932,470.113,731.27,436.25Z" transform="translate(-296.031 -399.719)"/>
</svg>
