<svg width="157" height="62" viewBox="0 0 157 62" fill="none" xmlns="http://www.w3.org/2000/svg"><path d="M41.8735 5.11095C41.8735 7.84199 39.5429 10.2219 36.7463 10.2219C33.9885 10.2219 31.6191 7.92002 31.6191 5.11095C31.6191 2.30188 33.9497 0 36.7463 0C39.6595 0.0390149 41.8735 2.34089 41.8735 5.11095Z" fill="#FF2400"/><path d="M31.6172 14.4739C31.6172 13.3035 32.6271 12.2891 33.8312 12.2891H39.6575C40.8228 12.2891 41.8715 13.3035 41.8715 14.4739V38.39H31.6172V14.4739Z" fill="#FF2400"/><path d="M76.1709 16.6985C76.1709 15.5281 77.1808 14.5137 78.3849 14.5137H91.4358C92.6011 14.5137 93.6498 15.5281 93.6498 16.6985V21.3023C93.6498 22.4727 92.6399 23.4871 91.4358 23.4871H78.3849C77.2196 23.4871 76.1709 22.4727 76.1709 21.3023V16.6985Z" fill="#FF2400"/><path d="M73.217 14.0063C73.217 6.20336 66.7692 0 58.9231 0C51.077 0 44.6681 6.20337 44.5127 13.9283V38.4296H55.1943V14.2014C55.1943 12.0166 56.981 10.1829 59.0785 10.1829C61.2925 10.1829 62.9627 11.9385 62.9627 14.2014V38.4296H73.217V37.5323V14.0063Z" fill="#FF2400"/><path d="M10.2543 38.4296H0V15.3718C0 11.0802 1.00989 7.68593 3.26274 5.03292C4.62221 3.3943 6.21474 2.18484 8.15684 1.32651C10.2543 0.429167 12.1964 0 14.2162 0C18.3723 0 21.7904 1.32651 24.5871 4.13558C27.3837 6.94465 28.7432 10.3389 28.7432 14.3575C28.7432 18.376 27.3837 21.7313 24.5871 24.5794C21.8293 27.3884 18.5665 28.871 14.6823 28.871C14.0997 28.871 13.1675 28.871 12.1576 28.7149V17.4787C12.8956 17.9078 13.6724 18.2199 14.3716 18.2199C15.3815 18.2199 16.3137 17.7908 17.0517 17.0495C17.7897 16.3082 18.217 15.2938 18.217 14.2404C18.217 13.07 17.7897 12.1726 17.0517 11.4314C16.3137 10.6901 15.4203 10.2609 14.2551 10.2609C11.575 10.2609 10.2155 12.0166 10.2155 15.723L10.2543 38.4296Z" fill="#FF2400"/><path d="M138.511 38.4296H128.257V15.3718C128.257 11.0802 129.267 7.68593 131.52 5.03292C132.879 3.3943 134.472 2.18484 136.414 1.32651C138.511 0.429167 140.453 0 142.473 0C146.629 0 150.047 1.32651 152.844 4.13558C155.641 6.94465 157 10.3389 157 14.3575C157 18.376 155.641 21.7313 152.844 24.5794C150.086 27.3884 146.823 28.871 142.939 28.871C142.357 28.871 141.424 28.871 140.414 28.7149V17.4787C141.152 17.9078 141.929 18.2199 142.628 18.2199C143.638 18.2199 144.571 17.7908 145.309 17.0495C146.047 16.3082 146.474 15.2938 146.474 14.2404C146.474 13.07 146.047 12.1726 145.309 11.4314C144.571 10.6901 143.677 10.2609 142.512 10.2609C139.832 10.2609 138.472 12.0166 138.472 15.723V38.4296H138.511Z" fill="#FF2400"/><path d="M96.4834 24.5403V0.429166V0H107.32V24.2672C107.32 26.4521 108.952 28.2858 111.205 28.2858C113.302 28.2858 115.089 26.5301 115.089 24.2672V0H125.343V24.3843C125.343 32.1873 118.779 38.4296 110.933 38.4296C103.087 38.4296 96.6776 32.2263 96.4834 24.5403Z" fill="#FF2400"/><path fill-rule="evenodd" clip-rule="evenodd" d="M156.999 44.0664H0V53.3439C0 58.1185 3.88324 62.0002 8.69846 62.0002H148.301C153.077 62.0002 156.999 58.1185 156.999 53.3439V44.0664ZM36.5933 51.0061C36.5933 52.1923 36.2434 53.1106 35.5047 53.7993C34.7659 54.488 33.7162 54.8324 32.3553 54.8324H30.9945V58.7353H28.7783V47.3711H32.3553C33.755 47.3711 34.8048 47.6772 35.5047 48.3277C36.2045 48.9399 36.5933 49.8199 36.5933 51.0061ZM32.2776 52.9193C32.9774 52.9193 33.5217 52.7662 33.8717 52.4218C34.2605 52.1157 34.416 51.6566 34.416 51.0444C34.416 50.4321 34.2216 49.973 33.8717 49.6669C33.5217 49.3608 32.9774 49.2077 32.2387 49.2077H30.9945V52.9193H32.2776ZM43.1636 56.2473H47.8682L48.879 58.6961H51.1341L46.0019 47.1406H45.0299L39.9365 58.6961H42.1527L43.1636 56.2473ZM45.5742 50.393L47.1683 54.4106H43.9412L45.5742 50.393ZM58.5606 54.2194H57.6664V58.6962H55.4502V47.332H59.0661C60.3103 47.332 61.2434 47.6381 61.9432 48.2121C62.6431 48.786 62.993 49.6278 62.993 50.6609C62.993 51.4645 62.7986 52.1149 62.3709 52.6889C61.9821 53.2628 61.3989 53.6455 60.6991 53.9133L63.3818 58.6962H60.9324L58.5606 54.2194ZM57.7053 52.5358H58.8328C59.4549 52.5358 59.9603 52.3828 60.3103 52.1149C60.6602 51.8471 60.8546 51.4262 60.8546 50.8522C60.8546 50.3166 60.6602 49.8957 60.3103 49.5896C59.9603 49.2835 59.4549 49.1304 58.8717 49.1304H57.7053V52.5358ZM72.6724 49.36H76.2494V47.332H66.957V49.36H70.4951V58.6962H72.6724V49.36ZM90.3254 47.3296V58.7703H89.3533L82.8603 51.5003V58.6938H80.7607V47.2148H81.7328L88.2258 54.4849V47.3296H90.3254ZM102.883 58.6962V56.8213H98.3344V53.8368H102.3V51.9236H98.3344V49.2069H102.728V47.332H96.1182V58.6962H102.883ZM111.05 54.2194H110.156V58.6962H107.939V47.332H111.555C112.8 47.332 113.733 47.6381 114.433 48.2121C115.132 48.786 115.482 49.6278 115.482 50.6609C115.482 51.4645 115.288 52.1149 114.86 52.6889C114.471 53.2628 113.888 53.6455 113.188 53.9133L115.871 58.6962H113.422L111.05 54.2194ZM110.195 52.5358H111.322C111.944 52.5358 112.45 52.3828 112.8 52.1149C113.149 51.8088 113.344 51.4262 113.344 50.8522C113.344 50.3166 113.149 49.8957 112.8 49.5896C112.45 49.2835 111.944 49.1304 111.361 49.1304H110.195V52.5358ZM119.876 56.0536C120.381 57.9668 121.742 58.9234 123.958 58.9234C124.581 58.9234 125.086 58.9234 125.591 58.7703C126.097 58.6173 126.525 58.3877 126.874 58.0816C127.224 57.7755 127.497 57.4311 127.691 57.0102C127.885 56.5893 127.963 56.1302 127.963 55.5945C127.963 54.6379 127.691 53.8726 127.186 53.2987C126.641 52.7247 125.864 52.3039 124.736 51.9977C124.631 51.9658 124.53 51.9355 124.434 51.9065C124.07 51.7968 123.769 51.7059 123.492 51.6151C123.184 51.5143 122.967 51.3839 122.787 51.2758C122.762 51.2609 122.738 51.2464 122.714 51.2325C122.52 51.1177 122.403 50.9646 122.325 50.8116C122.248 50.6585 122.209 50.5055 122.209 50.2759C122.17 49.8933 122.325 49.6254 122.598 49.3958C122.909 49.2045 123.259 49.0897 123.764 49.0897C124.775 49.0897 125.358 49.5106 125.591 50.3142L127.497 49.5489C126.991 47.9801 125.747 47.2148 123.881 47.2148C123.297 47.2148 122.792 47.2914 122.325 47.4444C121.859 47.5975 121.47 47.8271 121.159 48.0949C120.848 48.3627 120.576 48.7071 120.42 49.0897C120.226 49.4724 120.148 49.9315 120.148 50.3907C120.148 51.309 120.42 52.0743 120.965 52.61C121.509 53.1456 122.364 53.5665 123.492 53.8344C123.958 53.9492 124.386 54.064 124.658 54.1787C124.93 54.2935 125.203 54.4466 125.358 54.5614C125.514 54.6762 125.63 54.8292 125.708 55.0205C125.786 55.1736 125.825 55.3649 125.825 55.5945C125.825 56.0536 125.669 56.398 125.358 56.6658C125.047 56.9337 124.581 57.0485 124.036 57.0485C123.414 57.0485 122.948 56.9337 122.598 56.6658C122.248 56.398 121.976 55.9771 121.781 55.3649L119.876 56.0536Z" fill="#00CFA6"/></svg>